<?xml version="1.0" encoding="iso-8859-1"?>
<!-- Generator: Adobe Illustrator 19.0.0, SVG Export Plug-In . SVG Version: 6.00 Build 0)  -->
<svg xmlns="http://www.w3.org/2000/svg" xmlns:xlink="http://www.w3.org/1999/xlink" version="1.1" id="Layer_1" x="0px" y="0px" viewBox="0 0 512 512" style="enable-background:new 0 0 512 512;" xml:space="preserve" width="512" height="512">
<g id="balance">
	<g id="fill_17_">
		<rect x="213.581" y="125.77" style="fill:#7EC66A;" width="84.838" height="106.006"/>
		<path style="fill:#5AAA4F;" d="M213.581,231.775h39.091c-11.649-45.239,20.327-57.773,45.747-60.833V125.77h-84.838V231.775z"/>
		<path style="fill:#B1EF97;" d="M77.901,54.609l14.968,60.517c5.582,22.569,25.835,38.422,49.083,38.422h228.094    c23.249,0,43.501-15.854,49.083-38.422l14.968-60.516H77.901z"/>
		<path style="fill:#B1EF97;" d="M337.22,218.227H174.779c-33.41,0-62.234,23.45-69.031,56.161L69.982,446.513h372.035    l-35.766-172.124C399.454,241.677,370.631,218.227,337.22,218.227z"/>
		<path style="fill:#92DD7A;" d="M298.419,218.227h-123.64c-33.41,0-62.233,23.45-69.031,56.161L69.982,446.513h147.029    C185.186,251.377,298.419,218.227,298.419,218.227z"/>
		<path style="fill:#FFEB99;" d="M448.818,504.5H63.181c-19.507,0-35.467-15.96-35.467-35.467v0    c0-19.507,15.96-35.467,35.467-35.467h385.637c19.507,0,35.467,15.96,35.467,35.467v0C484.285,488.54,468.325,504.5,448.818,504.5    z"/>
		<path style="fill:#FFDE55;" d="M170.11,469.033L170.11,469.033c0-19.507,15.96-35.467,35.467-35.467H63.181    c-19.507,0-35.467,15.96-35.467,35.467v0c0,19.507,15.96,35.467,35.467,35.467h142.396C186.07,504.5,170.11,488.54,170.11,469.033    z"/>
		<circle style="fill:#FFFFFF;" cx="256" cy="325.897" r="70.243"/>
		<path style="fill:#D7F3FF;" d="M256,294.474c32.058,0,59.08,21.484,67.504,50.833c1.77-6.167,2.738-12.674,2.738-19.41    c0-38.794-31.449-70.242-70.243-70.242c-38.794,0-70.242,31.449-70.242,70.242c0,6.736,0.968,13.243,2.738,19.41    C196.92,315.958,223.942,294.474,256,294.474z"/>
		<circle style="fill:#FF737D;" cx="256" cy="325.897" r="20.243"/>
		<path style="fill:#92DD7A;" d="M206.127,54.609H77.901l14.968,60.517c5.582,22.569,25.835,38.422,49.083,38.422h106.182    c-51.229-26.861-42.009-80.992-42.009-80.992V54.609z"/>
		<path style="fill:#FFEB99;" d="M432.84,72.556H79.16c-17.89,0-32.528-14.637-32.528-32.528v0C46.632,22.138,61.27,7.5,79.16,7.5    h353.68c17.89,0,32.528,14.638,32.528,32.528v0C465.367,57.918,450.73,72.556,432.84,72.556z"/>
		<path style="fill:#FFDE55;" d="M173.599,40.028L173.599,40.028c0-17.89,14.637-32.528,32.528-32.528H79.16    c-17.89,0-32.528,14.638-32.528,32.528l0,0c0,17.89,14.637,32.528,32.528,32.528h126.967    C188.236,72.556,173.599,57.918,173.599,40.028z"/>
	</g>
	<g id="stroke_17_">
		<path d="M445.428,426.066l-31.835-153.203c-7.48-36.004-39.601-62.136-76.373-62.136h-116.14v-49.68h69.838v24.84    c0,4.142,3.357,7.5,7.5,7.5c4.143,0,7.5-3.358,7.5-7.5v-24.84h64.128c26.76,0,49.939-18.144,56.364-44.122l9.144-36.973    c20.809-1.402,37.313-18.768,37.313-39.925C472.868,17.957,454.911,0,432.84,0H79.16C57.089,0,39.132,17.957,39.132,40.028    c0,21.158,16.504,38.523,37.312,39.925l9.145,36.973c6.425,25.978,29.603,44.122,56.364,44.122h64.128v49.68h-31.302    c-36.773,0-68.893,26.132-76.374,62.136L66.571,426.066c0,0-46.357,1.851-46.357,42.967c0,23.692,19.275,42.967,42.967,42.967    h385.637c23.692,0,42.968-19.275,42.968-42.967C491.786,428.649,445.428,426.066,445.428,426.066z M100.15,113.324l-8.228-33.269    h4.724c4.142,0,7.5-3.358,7.5-7.5s-3.358-7.5-7.5-7.5H79.16c-13.8,0-25.028-11.228-25.028-25.028S65.36,15,79.16,15h353.68    c13.801,0,25.028,11.228,25.028,25.028S446.64,65.056,432.84,65.056H128.446c-4.142,0-7.5,3.358-7.5,7.5s3.358,7.5,7.5,7.5    h291.633l-8.228,33.268c-4.767,19.267-21.957,32.724-41.804,32.724H141.953C122.105,146.047,104.915,132.591,100.15,113.324z     M113.092,275.915c6.043-29.081,31.986-50.188,61.688-50.188H337.22c29.701,0,55.645,21.107,61.688,50.188l31.201,150.151H81.891    L113.092,275.915z M448.818,497H63.181c-15.421,0-27.967-12.546-27.967-27.967c0-15.421,12.546-27.967,27.967-27.967h385.637    c15.422,0,27.968,12.546,27.968,27.967C476.786,484.454,464.24,497,448.818,497z"/>
		<path d="M256,248.154c-42.868,0-77.743,34.875-77.743,77.742c0,42.868,34.875,77.743,77.743,77.743    c11.188,0,21.99-2.328,32.105-6.92c3.772-1.712,5.44-6.158,3.729-9.929c-1.712-3.771-6.157-5.442-9.929-3.729    c-8.154,3.701-16.87,5.578-25.905,5.578c-34.596,0-62.743-28.146-62.743-62.743s28.146-62.742,62.743-62.742    c34.596,0,62.742,28.146,62.742,62.742c0,14.836-5.273,29.23-14.847,40.531c-2.678,3.161-2.286,7.893,0.875,10.571    c3.16,2.677,7.894,2.286,10.57-0.875c11.866-14.007,18.401-31.845,18.401-50.227C333.742,283.029,298.867,248.154,256,248.154z"/>
		<path d="M256,278.7c-4.142,0-7.5,3.358-7.5,7.5v12.992c-11.664,3.28-20.243,14.006-20.243,26.705    c0,15.298,12.445,27.744,27.743,27.744c15.298,0,27.743-12.446,27.743-27.744c0-12.699-8.579-23.424-20.243-26.705V286.2    C263.5,282.058,260.142,278.7,256,278.7z M268.743,325.897c0,7.027-5.717,12.744-12.743,12.744    c-7.026,0-12.743-5.717-12.743-12.744c0-7.026,5.717-12.743,12.743-12.743C263.026,313.153,268.743,318.87,268.743,325.897z"/>
	</g>
</g>















</svg>
